<svg xmlns="http://www.w3.org/2000/svg" viewBox="0 0 600 600"><g fill="#09f"><path d="M0 0h300v599.99H0z"/><path d="M359.24 302.78c-3.58 5.34-8.5 6.82-13.78 4.8-.92-.36-1.86-.82-2.82-1.38-6.82-4.1-13.84-8.16-19.8-13.36-6.62-5.82-13.1-12.26-17.92-19.56-1.72-2.64-3.36-5.32-4.92-8.06V210l13.68 29.36-.08.08c2.76 5.56 4.58 12 8 16.94.62.92 1.3 1.76 2.06 2.56 9.8 10.3 21.06 19.22 31.9 28.5 5.12 4.38 7.8 9.2 3.68 15.34z"/></g><path d="M600 0v599.99H300V265.21l4.92 8.06c4.82 7.3 11.3 13.74 17.92 19.56 5.96 5.2 12.98 9.26 19.8 13.36.96.56 1.9 1.02 2.82 1.38 5.28 2.02 10.2.54 13.78-4.8 4.12-6.14 1.44-10.96-3.68-15.34-10.84-9.28-22.1-18.2-31.9-28.5-.76-.8-1.44-1.64-2.06-2.56-3.42-4.94-5.24-11.38-8-16.94.02-.02.04-.06.08-.08L300 209.99V0h300z" fill="#e674fb"/><path d="m321.6,256.38c-3.42-4.94-5.24-11.38-8-16.94.02-.02.04-.06.08-.08l7.92,17.02Z" fill="#01fafc"/><path d="M465.38 273.04c-.66 16.04-3.58 31.46-8.68 46.12-6.46 18.56-14.94 36.54-23.96 54.06-7.3 14.2-15.62 28.2-25.4 40.78-12.82 16.52-27.14 31.94-41.56 47.12-11.28 11.88-23.48 22.94-35.72 33.84-9.02 8.04-18.8 15.24-28.2 22.88-.68.54-1.02 1.52-1.52 2.3l-.34.06-1.16.24c-8.4-6.88-17.1-13.42-25.12-20.7-11.32-10.3-22.24-21.06-33.14-31.8-5.82-5.72-11.12-11.98-16.9-17.76-22.14-22.1-40.2-47.24-54.92-74.7-8.5-15.84-17.34-31.76-23.28-48.62-5.14-14.58-6.96-30.44-9.22-45.88-1.6-10.92-2.06-22.08-1.96-33.14.16-21.2 6.36-40.42 22.3-55.24 14.42-13.38 32.18-13.54 49.94-10.1 26.74 5.18 48.12 18.72 65.1 38.22 3.9 4.48 7.58 9.28 11.04 14.38 6.5 9.54 11.54 20.08 17.32 30.12 1.56 2.74 3.2 5.42 4.92 8.06 4.82 7.3 11.3 13.74 17.92 19.56 5.96 5.2 12.98 9.26 19.8 13.36.96.56 1.9 1.02 2.82 1.38 5.28 2.02 10.2.54 13.78-4.8 4.12-6.14 1.44-10.96-3.68-15.34-10.84-9.28-22.1-18.2-31.9-28.5-.76-.8-1.44-1.64-2.06-2.56-3.42-4.94-5.24-11.38-8-16.94.02-.02.04-.06.08-.08 8.38-9.86 15.96-20.58 25.36-29.38 15.64-14.6 34.6-23.3 55.52-28.52 22.7-5.68 50.42 6 60.94 26.82 10.4 20.6 10.8 42.28 9.88 64.76zM227.63 166.79c-27 1.13-47.3-19.53-47.33-45.75-.02-24.14 20.65-44.63 43.84-45.79 26.87-1.35 48.77 22.15 48.82 45.25.06 22.7-21.41 48.47-45.33 46.29zm191.01-45.98c1.22 24.09-17.67 46.61-46.06 46.07-23.56-.45-44.29-21.33-44.29-45.5 0-25.51 20.14-45.97 45.18-45.9 27.53.08 45.16 17.77 45.17 45.32z" fill="#fbfbfc"/></svg>
